# xmcd CD database file
#
# Track frame offsets:
#	150
#	14967
#	26097
#	38999
#	53394
#	68664
#	81464
#	95196
#	104981
#	116822
#	127744
#	139386
#	151398
#	166788
#	179853
#	196113
#	206877
#	220596
#	234375
#
# Disc length: 3339 seconds
#
# Revision: 0
# Processed by: cddbd v1.5.1PL0 Copyright (c) Steve Scherf et al.
# Submitted via: CDex 1.51
#
DISCID=1d0d0913
DTITLE=Kammerchor der Hochschule Franz List Weimar - Il Primo Libro De Madrigali
DYEAR=2000
DGENRE=Klassik
TTITLE0=Prima parte: O primavere, gioventu de iánno
TTITLE1=Seconda parte: O primavere, gioventu de iánno
TTITLE2=Selve beate, se sospirando
TTITLE3=Alma afflitta, che fai?
TTITLE4=Cosi morir debbío
TTITLE5=Dórrida selce alpina
TTITLE6=Ride la primavera
TTITLE7=Fuggi, fuggio, o mio core!
TTITLE8=Feritevi, ferite, viperette mordaci
TTITLE9=Fiamma chállaccia 
TTITLE10=Quella damma son io
TTITLE11=Mi saluta costei
TTITLE12=Ia moro, ecco chío moro
TTITLE13=Sospir, che del bel petto
TTITLE14=Dunque addio, care selve
TTITLE15=Tornate, o cari baci
TTITLE16=Di marmo siete voi
TTITLE17=Giunto e pur. Lidia
TTITLE18=Vasto mar. nel cui seno
EXTD=YEAR: 2000
EXTT0=
EXTT1=
EXTT2=
EXTT3=
EXTT4=
EXTT5=
EXTT6=
EXTT7=
EXTT8=
EXTT9=
EXTT10=
EXTT11=
EXTT12=
EXTT13=
EXTT14=
EXTT15=
EXTT16=
EXTT17=
EXTT18=
PLAYORDER=
